<svg width="24" height="24" viewBox="0 0 24 24" fill="none" xmlns="http://www.w3.org/2000/svg">
<path d="M7.31673 3.7687C10.4043 3.42362 13.5957 3.42362 16.6832 3.7687C17.8424 3.89826 18.8601 4.52513 19.5038 5.43552L11.5 13.4393L9.03033 10.9696C8.73744 10.6767 8.26256 10.6767 7.96967 10.9696C7.67678 11.2625 7.67678 11.7374 7.96967 12.0303L10.9697 15.0303C11.2626 15.3232 11.7374 15.3232 12.0303 15.0303L20.1458 6.91484C20.1682 7.02441 20.1862 7.13567 20.1994 7.24843C20.5686 10.4053 20.5686 13.5945 20.1994 16.7515C19.9845 18.5884 18.5096 20.0271 16.6832 20.2312C13.5957 20.5763 10.4043 20.5763 7.31673 20.2312C5.49035 20.0271 4.01545 18.5884 3.8006 16.7515C3.43137 13.5945 3.43137 10.4053 3.8006 7.24843C4.01545 5.41146 5.49035 3.97282 7.31673 3.7687Z" fill="black"/>
</svg>
